<svg xmlns="http://www.w3.org/2000/svg" width="70" height="70" viewBox="0 0 70 70" fill="none">
<path d="M7.60885 69.8431H3.80443V57.4429H0.00727424L0 54.0438H11.7261L10.6495 57.4429H7.60885V69.8431ZM38.5462 69.8431H34.749V57.4429H30.9373L30.9301 54.0438H42.9253L41.8487 57.4429H38.5462V69.8431ZM12.4389 59.0695H16.1997V69.8431H12.468L12.4389 59.0695ZM22.5574 64.5985L21.4445 65.6781V69.8431H17.6909V54H21.4445V61.3599L25.1689 57.7128H29.6498L24.9434 62.2935L30.2172 69.8431H26.0781L22.5574 64.5985ZM62.3475 64.5985L61.2709 65.6781V69.8431H57.5101L57.4738 54H61.2709V61.3599L64.988 57.7128H69.469L64.7625 62.2935L70 69.8431H65.861L62.3475 64.5985Z" fill="black"/>
<path d="M14.3229 57.8366C15.3675 57.8366 16.2142 56.9876 16.2142 55.9401C16.2142 54.8927 15.3675 54.0436 14.3229 54.0436C13.2784 54.0436 12.4316 54.8927 12.4316 55.9401C12.4316 56.9876 13.2784 57.8366 14.3229 57.8366Z" fill="black"/>
<path d="M42.4454 63.395C42.4466 60.0298 45.0282 57.2314 48.3739 56.9688H47.8138C44.4136 57.1676 41.7578 59.9906 41.7578 63.4059C41.7578 66.8213 44.4136 69.6442 47.8138 69.8431H48.3739C45.0199 69.5798 42.4351 66.7685 42.4454 63.395Z" fill="#25F4EE"/>
<path d="M49.8359 56.9469H49.2686C52.6034 57.2231 55.1697 60.0177 55.1697 63.3731C55.1697 66.7285 52.6034 69.5231 49.2686 69.7993H49.8359C53.3874 69.7993 56.2664 66.9124 56.2664 63.3512C56.2664 59.7901 53.3874 56.9031 49.8359 56.9031V56.9469Z" fill="#FE2C55"/>
<path d="M48.8174 66.5315C47.0899 66.5315 45.6895 65.1272 45.6895 63.395C45.6895 61.6627 47.0899 60.2585 48.8174 60.2585C50.5449 60.2585 51.9453 61.6627 51.9453 63.395C51.9413 65.1256 50.5432 66.5275 48.8174 66.5315ZM48.8174 56.9469C45.266 56.9469 42.387 59.8338 42.387 63.395C42.387 66.9562 45.266 69.8431 48.8174 69.8431C52.3688 69.8431 55.2478 66.9562 55.2478 63.395C55.2478 61.6848 54.5703 60.0447 53.3644 58.8355C52.1584 57.6262 50.5228 56.9469 48.8174 56.9469Z" fill="black"/>
<path d="M29.7276 18.1158V16.3234C29.107 16.2248 28.4803 16.1707 27.8521 16.1617C21.7703 16.1488 16.3858 20.1008 14.5595 25.918C12.7332 31.7351 14.8889 38.0674 19.8813 41.5504C16.1416 37.5372 15.1032 31.6948 17.2299 26.6331C19.3567 21.5714 24.2514 18.2356 29.7276 18.1158Z" fill="#25F4EE"/>
<path d="M30.0648 38.421C33.4653 38.4164 36.2604 35.7301 36.4093 32.3236V1.92473H41.9478C41.8348 1.28955 41.7808 0.645199 41.7866 0L34.2114 0V30.3695C34.0855 33.7933 31.2838 36.5054 27.867 36.5109C26.8459 36.5023 25.8415 36.2505 24.9365 35.7763C25.523 36.5912 26.2933 37.2555 27.1845 37.7151C28.0758 38.1747 29.0626 38.4165 30.0648 38.421ZM52.2923 12.2389V10.5492C50.254 10.5499 48.2609 9.94678 46.5633 8.8155C48.0514 10.5503 50.0625 11.752 52.2923 12.2389Z" fill="#25F4EE"/>
<path d="M46.5633 8.81549C44.8911 6.90595 43.9692 4.4513 43.9699 1.91H41.9479C42.209 3.31506 42.753 4.65202 43.5465 5.83929C44.3401 7.02655 45.3666 8.03922 46.5633 8.81549ZM27.8524 23.7578C24.9344 23.7728 22.401 25.7774 21.708 28.6199C21.0149 31.4623 22.34 34.4129 24.922 35.7763C23.523 33.8395 23.3253 31.2795 24.4104 29.1499C25.4955 27.0202 27.68 25.6808 30.0649 25.6825C30.7009 25.6905 31.3324 25.7895 31.9405 25.9764V18.248C31.3195 18.1548 30.6928 18.1057 30.0649 18.1012H29.7279V23.9781C29.1167 23.8138 28.485 23.7396 27.8524 23.7578Z" fill="#FE2C55"/>
<path d="M52.2922 12.239V18.116C48.5188 18.1086 44.8433 16.911 41.7865 14.6926V30.1345C41.7703 37.8398 35.5365 44.0777 27.8522 44.0777C24.9985 44.0828 22.2135 43.1998 19.8813 41.5506C23.7733 45.7479 29.8303 47.1296 35.1501 45.0335C40.4698 42.9374 43.9685 37.7906 43.9696 32.0592V16.6614C47.0367 18.8652 50.7167 20.0473 54.49 20.0407V12.474C53.7512 12.4717 53.0148 12.3929 52.2922 12.239Z" fill="#FE2C55"/>
<path d="M41.7862 30.1344V14.6925C44.8524 16.8982 48.533 18.0804 52.3065 18.0718V12.1948C50.0772 11.7227 48.0613 10.5367 46.5628 8.81549C45.366 8.03922 44.3396 7.02655 43.546 5.83929C42.7525 4.65202 42.2085 3.31506 41.9474 1.91H36.4089V32.3235C36.298 35.0369 34.4856 37.3822 31.893 38.1671C29.3004 38.952 26.4965 38.0043 24.9068 35.8057C22.3249 34.4422 20.9997 31.4916 21.6928 28.6492C22.3858 25.8068 24.9192 23.8022 27.8373 23.7872C28.4733 23.7929 29.1052 23.8919 29.7128 24.0811V18.204C24.2058 18.2976 19.2741 21.645 17.1414 26.737C15.0086 31.829 16.0777 37.7036 19.8665 41.7121C22.2216 43.307 25.0106 44.1332 27.8519 44.0776C35.5362 44.0776 41.77 37.8397 41.7862 30.1344Z" fill="black"/>
</svg>