<svg xmlns="http://www.w3.org/2000/svg" width="70" height="67" viewBox="0 0 70 67" fill="none">
<path d="M3.85872 59.1458L0 45.2167H3.3665L4.71878 51.5309C5.06388 53.0861 5.31564 54.4123 5.47972 55.5094H5.57871C5.6919 54.7233 5.94655 53.4056 6.33978 51.5535L7.74005 45.2167H11.1065L7.19972 59.1458V65.8276H3.85595V59.1458H3.85872Z" fill="#282828"/>
<path d="M12.1192 65.386C11.4403 64.9279 10.9565 64.2153 10.6679 63.2483C10.3823 62.2812 10.238 60.9975 10.238 59.3913V57.2055C10.238 55.5852 10.4021 54.2817 10.7303 53.3005C11.0584 52.3194 11.5705 51.6011 12.2663 51.1515C12.9623 50.7019 13.876 50.4757 15.0077 50.4757C16.1223 50.4757 17.0134 50.7048 17.6866 51.1628C18.3571 51.6209 18.8493 52.3391 19.1605 53.3119C19.4717 54.2874 19.6274 55.5852 19.6274 57.2055V59.3913C19.6274 60.9975 19.4746 62.2869 19.1719 63.2596C18.8692 64.2351 18.377 64.9477 17.6979 65.3973C17.019 65.847 16.0968 66.0731 14.9341 66.0731C13.7346 66.0759 12.7982 65.8441 12.1192 65.386ZM15.9271 63.0277C16.1137 62.5358 16.21 61.7355 16.21 60.6214V55.9303C16.21 54.8501 16.1166 54.0584 15.9271 53.5607C15.7375 53.0602 15.4066 52.8114 14.9312 52.8114C14.473 52.8114 14.1476 53.0602 13.961 53.5607C13.7714 54.0612 13.678 54.8501 13.678 55.9303V60.6214C13.678 61.7355 13.7685 62.5385 13.9496 63.0277C14.1307 63.5197 14.4559 63.7657 14.9312 63.7657C15.4066 63.7657 15.7375 63.5197 15.9271 63.0277Z" fill="#282828"/>
<path d="M30.578 65.8305H27.9245L27.6303 63.9868H27.5568C26.8353 65.378 25.7546 66.0736 24.3119 66.0736C23.3132 66.0736 22.5749 65.7456 22.0997 65.0925C21.6244 64.4364 21.3867 63.4129 21.3867 62.0216V50.7703H24.7787V61.8236C24.7787 62.4967 24.8522 62.9745 24.9993 63.2602C25.1464 63.5457 25.3925 63.6899 25.7377 63.6899C26.0319 63.6899 26.3148 63.5995 26.5864 63.4185C26.858 63.2374 27.056 63.0084 27.1889 62.7314V50.7675H30.578V65.8305Z" fill="#282828"/>
<path d="M39.7926 47.9449H36.4261V65.8299H33.1077V47.9449H29.7412V45.2191H39.7926V47.9449Z" fill="#282828"/>
<path d="M47.9735 65.8305H45.32L45.0258 63.9868H44.9523C44.2309 65.378 43.1502 66.0736 41.7074 66.0736C40.7088 66.0736 39.9704 65.7456 39.4952 65.0925C39.0199 64.4364 38.7822 63.4129 38.7822 62.0216V50.7703H42.1742V61.8236C42.1742 62.4967 42.2477 62.9745 42.3948 63.2602C42.5419 63.5457 42.7881 63.6899 43.1333 63.6899C43.4274 63.6899 43.7103 63.5995 43.9819 63.4185C44.2535 63.2374 44.4515 63.0084 44.5844 62.7314V50.7675H47.9735V65.8305Z" fill="#282828"/>
<path d="M59.1993 53.1764C58.9928 52.2263 58.6617 51.5392 58.2036 51.1122C57.7453 50.6852 57.1143 50.4731 56.3109 50.4731C55.6886 50.4731 55.1058 50.6485 54.5654 51.0019C54.0251 51.3554 53.6064 51.8163 53.3122 52.3903H53.2868V44.4559H50.0193V65.8274H52.82L53.1651 64.4022H53.2387C53.5017 64.9112 53.895 65.3099 54.4183 65.6068C54.9417 65.9009 55.5245 66.048 56.1638 66.048C57.3096 66.048 58.1554 65.5192 58.6958 64.4644C59.2361 63.4068 59.5076 61.7583 59.5076 59.5132V57.1295C59.5076 55.447 59.4029 54.1265 59.1993 53.1764ZM56.0902 59.3209C56.0902 60.418 56.045 61.2776 55.9544 61.8997C55.864 62.5218 55.714 62.9658 55.499 63.2259C55.2868 63.4888 54.9982 63.6189 54.6389 63.6189C54.3589 63.6189 54.1015 63.5539 53.8638 63.421C53.6262 63.2909 53.4339 63.093 53.2868 62.8328V54.2848C53.3999 53.8748 53.598 53.5412 53.878 53.2782C54.1553 53.0152 54.4608 52.8851 54.7861 52.8851C55.1313 52.8851 55.3971 53.0209 55.5839 53.2895C55.7734 53.561 55.9035 54.0134 55.9771 54.6524C56.0506 55.2915 56.0875 56.1991 56.0875 57.3783V59.3209H56.0902Z" fill="#282828"/>
<path d="M64.3194 60.1889C64.3194 61.156 64.3477 61.8799 64.4043 62.3635C64.4609 62.8469 64.5797 63.1976 64.7607 63.421C64.9418 63.6415 65.219 63.7518 65.5953 63.7518C66.1017 63.7518 66.4525 63.5539 66.6392 63.1608C66.8287 62.7678 66.9306 62.1118 66.9476 61.1956L69.8727 61.3681C69.8897 61.4981 69.8981 61.6791 69.8981 61.9081C69.8981 63.2993 69.5162 64.34 68.7553 65.0271C67.9943 65.7142 66.9164 66.0592 65.5246 66.0592C63.8527 66.0592 62.6814 65.536 62.011 64.487C61.3377 63.438 61.0039 61.8177 61.0039 59.6234V56.9936C61.0039 54.7344 61.3519 53.083 62.0478 52.0424C62.7438 51.0019 63.9347 50.4816 65.6236 50.4816C66.7863 50.4816 67.6803 50.6936 68.3026 51.1206C68.925 51.5476 69.3634 52.2093 69.6181 53.1113C69.8727 54.0133 70 55.2575 70 56.8466V59.4255H64.3194V60.1889ZM64.7494 53.0915C64.5768 53.3036 64.4638 53.6514 64.4043 54.1349C64.3477 54.6184 64.3194 55.3508 64.3194 56.3349V57.4151H66.8005V56.3349C66.8005 55.3678 66.7665 54.6354 66.7015 54.1349C66.6364 53.6344 66.5175 53.2838 66.3449 53.0774C66.1724 52.8738 65.9065 52.7692 65.5472 52.7692C65.1851 52.772 64.9192 52.8794 64.7494 53.0915Z" fill="#282828"/>
<path d="M57.0381 5.02633C56.5081 3.04683 54.9516 1.49124 52.9713 0.961359C49.3855 2.87771e-07 34.9999 0 34.9999 0C34.9999 0 20.6146 2.87771e-07 17.0286 0.961359C15.0482 1.49124 13.4919 3.04683 12.9618 5.02633C12 8.6106 12 16.0933 12 16.0933C12 16.0933 12 23.5761 12.9618 27.1604C13.4919 29.1398 15.0482 30.6954 17.0286 31.2252C20.6146 32.1866 34.9999 32.1866 34.9999 32.1866C34.9999 32.1866 49.3855 32.1866 52.9713 31.2252C54.9516 30.6954 56.5081 29.1398 57.0381 27.1604C58 23.5761 58 16.0933 58 16.0933C58 16.0933 57.9961 8.6106 57.0381 5.02633Z" fill="#FF0000"/>
<path d="M30.3958 22.9899L42.3464 16.0939L30.3958 9.19785V22.9899Z" fill="white"/>
</svg>